<svg width="1200" height="630" viewBox="0 0 1200 630" fill="none" xmlns="http://www.w3.org/2000/svg">
  <rect width="1200" height="630" fill="#0D1117"/>
  <path d="M0 465C180 390 309 443 467 365C629 285 788 161 1200 222V630H0V465Z" fill="#1C2B1E"/>
  <path d="M0 130C180 65 294 137 440 100C594 61 820 -35 1200 51V0H0V130Z" fill="#161D22"/>
  <g opacity=".45" stroke="#2E3D2E" stroke-width="2">
    <path d="M0 60H1200M0 140H1200M0 220H1200M0 300H1200M0 380H1200M0 460H1200M0 540H1200"/>
    <path d="M80 0V630M180 0V630M280 0V630M380 0V630M480 0V630M580 0V630M680 0V630M780 0V630M880 0V630M980 0V630M1080 0V630"/>
  </g>
  <circle cx="896" cy="306" r="160" stroke="#C8973A" stroke-opacity=".18" stroke-width="3"/>
  <circle cx="896" cy="306" r="92" stroke="#D64045" stroke-opacity=".2" stroke-width="2"/>
  <path d="M178 164L260 197V251C260 294 229 329 178 346C127 329 96 294 96 251V197L178 164Z" fill="#161D22" stroke="#C8973A" stroke-width="6"/>
  <path d="M178 189V321M113 255H243" stroke="#7A8A7A" stroke-width="4" stroke-linecap="round"/>
  <circle cx="178" cy="255" r="42" stroke="#C8973A" stroke-width="6"/>
  <circle cx="178" cy="255" r="11" fill="#D64045"/>
  <text x="328" y="267" fill="#E8E0D0" font-family="Rajdhani, Orbitron, Arial, sans-serif" font-size="98" font-weight="800" letter-spacing="16">DOMINION</text>
  <text x="334" y="324" fill="#C8973A" font-family="Share Tech Mono, monospace" font-size="24" letter-spacing="6">MASSIVE BROWSER RTS</text>
  <path d="M333 350H843" stroke="#C8973A" stroke-width="3" stroke-linecap="round"/>
</svg>
